#!OML:ASF F:\VICON\USERDATA\INSTALL\Justin_Nancy\Justin_Nancy.ASF
:FULLY-SPECIFIED
:DEGREES
114
root 7.20835 15.9152 4.24593 -26.544 -27.111 48.3063
lowerback 6.59962 -0.151728 -27.2106
upperback -1.29769 -3.00723 -5.99952
thorax -4.35165 -0.944177 8.60974
lowerneck -11.5853 -11.835 -14.5508
upperneck 17.0939 -14.8098 6.17611
head 8.80447 -7.41489 2.57234
rclavicle -1.07741e-013 7.95139e-014
rhumerus -40.6562 19.7033 -88.3319
rradius 109.904
rwrist -7.55211
rhand -7.98897 19.5053
rfingers 7.12502
rthumb 17.9195 -9.68918
lclavicle -1.07741e-013 7.95139e-014
lhumerus -44.9339 -1.33937 83.8644
lradius 90.0356
lwrist 10.0008
lhand -20.4773 5.95365
lfingers 7.12502
lthumb 5.87897 35.8521
rfemur -36.9638 -12.367 -8.93201
rtibia 73.7296
rfoot -16.8059 12.2604
rtoes 21.2513
lfemur 2.8453 -18.1391 -44.3355
ltibia 42.4452
lfoot 21.6915 -9.72382
ltoes -13.9887
115
root 6.89592 16.1333 4.43948 -23.3412 -33.0792 40.9983
lowerback 5.88437 0.0464158 -18.5808
upperback -1.10439 -1.59801 -3.88021
thorax -4.19466 -0.424509 6.34665
lowerneck -12.6124 -11.8652 -14.3191
upperneck 17.5237 -14.7837 6.25806
head 9.11824 -7.35223 2.50693
rclavicle 9.34288e-015 -1.55847e-013
rhumerus -38.8311 20.3919 -87.369
rradius 109.362
rwrist -7.76358
rhand -8.19024 19.4863
rfingers 7.12502
rthumb 17.7258 -9.72581
lclavicle 9.34288e-015 -1.55847e-013
lhumerus -46.3455 -0.743807 82.8499
lradius 90.5312
lwrist 9.53432
lhand -21.1302 5.68891
lfingers 7.12502
lthumb 5.24864 35.6039
rfemur -34.1808 -7.96143 1.35168
rtibia 70.5363
rfoot -16.8126 9.80217
rtoes 23.2755
lfemur 1.31206 -16.544 -35.8994
ltibia 45.8629
lfoot 17.5764 -7.38877
ltoes -16.1594
116
root 6.60532 16.3665 4.67135 -16.0054 -41.0971 25.2404
lowerback 7.65183 0.520043 -2.8113
upperback -0.661866 0.433224 0.0645457
thorax -5.00672 0.290329 1.59651
lowerneck -12.0119 -11.8902 -15.1571
upperneck 17.3105 -14.8405 6.76649
head 9.05607 -7.39963 2.82134
rclavicle -2.19657e-014 3.49861e-014
rhumerus -37.369 21.015 -86.1421
rradius 108.738
rwrist -7.73499
rhand -8.6048 19.4576
rfingers 7.12502
rthumb 17.3268 -9.79009
lclavicle -2.19657e-014 3.49861e-014
lhumerus -48.533 -0.500895 82.4004
lradius 91.2448
lwrist 9.42844
lhand -21.4906 5.50052
lfingers 7.12502
lthumb 4.90062 35.4238
rfemur -27.9574 -2.24656 18.5736
rtibia 65.8603
rfoot -16.481 6.37364
rtoes 25.3649
lfemur 1.97106 -13.833 -20.5472
ltibia 49.2969
lfoot 13.4575 -5.62085
ltoes -13.24
117
root 6.34537 16.4348 4.84786 -15.2831 -43.0111 24.2825
lowerback 7.63899 0.795493 -1.71227
upperback -0.68015 0.931575 0.63599
thorax -5.03349 0.51538 1.51312
lowerneck -11.3273 -11.8371 -15.8013
upperneck 16.6916 -14.8607 7.49292
head 8.83746 -7.39815 3.19834
rclavicle -1.21259e-014 2.8625e-014
rhumerus -35.7695 21.7474 -85.2797
rradius 108.198
rwrist -7.36814
rhand -8.69932 19.3808
rfingers 7.12502
rthumb 17.2359 -9.87481
lclavicle -1.21259e-014 2.8625e-014
lhumerus -50.7147 -0.309862 81.7314
lradius 92.0864
lwrist 9.62253
lhand -21.2111 5.69298
lfingers 7.12502
lthumb 5.1705 35.6099
rfemur -25.6402 -0.807486 20.1568
rtibia 62.8394
rfoot -15.6203 6.34819
rtoes 27.4534
lfemur -0.130322 -12.8959 -19.4193
ltibia 51.8791
lfoot 11.4123 -3.55257
ltoes -8.03336
118
root 6.10967 16.4625 4.95111 -14.9048 -43.4881 24.2122
lowerback 8.07443 0.72557 -1.98644
upperback -0.681669 0.812083 0.792431
thorax -5.28334 0.468385 1.84114
lowerneck -11.5979 -11.8772 -15.5765
upperneck 16.3047 -14.9631 7.90081
head 8.77977 -7.3833 3.27756
rclavicle -2.54444e-014 4.77083e-014
rhumerus -33.7508 22.2137 -84.7479
rradius 107.752
rwrist -6.68691
rhand -8.66891 19.8035
rfingers 7.12502
rthumb 17.2651 -9.44955
lclavicle -2.54444e-014 4.77083e-014
lhumerus -52.602 -0.455312 80.8926
lradius 92.9142
lwrist 10.2341
lhand -21.1649 5.99538
lfingers 7.12502
lthumb 5.2151 35.9112
rfemur -23.9102 -0.277459 20.7138
rtibia 60.335
rfoot -14.8973 6.29513
rtoes 28.3167
lfemur -2.66032 -11.9811 -18.9014
ltibia 54.0078
lfoot 9.03799 -3.50203
ltoes -10.9069
119
root 5.86808 16.4906 5.11602 -14.9862 -44.4246 24.6245
lowerback 7.80323 0.829824 -1.87214
upperback -0.414655 0.961187 0.673868
thorax -4.85362 0.530373 1.63874
lowerneck -11.81 -11.8784 -15.0825
upperneck 15.8606 -15.0185 8.07125
head 8.64547 -7.3551 3.25071
rclavicle 2.88238e-014 -3.49861e-014
rhumerus -31.6086 22.411 -84.4625
rradius 107.209
rwrist -5.63945
rhand -9.25139 20.5616
rfingers 7.12502
rthumb 16.7044 -8.73969
lclavicle 2.88238e-014 -3.49861e-014
lhumerus -54.3215 -0.914781 80.2884
lradius 93.506
lwrist 11.3061
lhand -21.7491 5.71076
lfingers 7.12502
lthumb 4.65101 35.6397
rfemur -22.2397 0.511436 20.7937
rtibia 58.6821
rfoot -15.0617 6.44
rtoes 26.1209
lfemur -4.34275 -10.9019 -19.2743
ltibia 55.4053
lfoot 6.6715 -2.52914
ltoes -16.9354
120
root 5.62726 16.5323 5.26018 -14.4291 -45.1925 23.9216
lowerback 7.98922 0.744463 -1.25723
upperback -0.201873 0.911961 0.906432
thorax -4.72797 0.490161 1.53961
lowerneck -11.7121 -11.683 -14.789
upperneck 15.3351 -14.7682 8.06269
head 8.39602 -7.22291 3.25876
rclavicle 2.14687e-014 -1.59028e-014
rhumerus -29.6705 22.7644 -84.24
rradius 106.865
rwrist -4.42445
rhand -9.58175 21.134
rfingers 7.12502
rthumb 16.3864 -8.19383
lclavicle 2.14687e-014 -1.59028e-014
lhumerus -56.3008 -1.05314 79.9928
lradius 94.1618
lwrist 12.1535
lhand -22.2344 5.06862
lfingers 7.12502
lthumb 4.18245 35.0073
rfemur -20.3302 1.08594 21.7972
rtibia 56.8287
rfoot -15.1764 6.28808
rtoes 21.7312
lfemur -6.32655 -10.3505 -18.5518
ltibia 56.671
lfoot 4.73948 -1.12513
ltoes -16.5859
121
root 5.38199 16.5816 5.39047 -13.7174 -45.9699 23.1522
lowerback 8.42721 0.709514 -0.822014
upperback -0.221772 0.920017 1.25171
thorax -4.99479 0.488635 1.64891
lowerneck -11.424 -11.3557 -14.6837
upperneck 14.9867 -14.302 7.82428
head 8.14695 -7.02641 3.25705
rclavicle 4.41302e-014 -4.45278e-014
rhumerus -28.4864 23.073 -84.0755
rradius 107.072
rwrist -3.39515
rhand -9.16256 21.2045
rfingers 7.12502
rthumb 16.79 -8.08958
lclavicle 4.41302e-014 -4.45278e-014
lhumerus -58.3891 -1.23766 79.8579
lradius 94.8334
lwrist 13.6802
lhand -21.7746 4.98834
lfingers 7.12502
lthumb 4.62642 34.9178
rfemur -18.4857 1.92909 22.8352
rtibia 54.8435
rfoot -14.8188 6.28167
rtoes 20.4924
lfemur -8.54834 -9.85716 -17.7334
ltibia 57.6763
lfoot 2.77895 -0.224065
ltoes -15.6969
122
root 5.11851 16.6331 5.52914 -13.1911 -46.7989 22.6651
lowerback 8.65462 0.735207 -0.618232
upperback -0.241094 0.988813 1.56118
thorax -5.14808 0.521552 1.84602
lowerneck -11.3941 -11.0585 -14.6235
upperneck 15.0131 -13.8571 7.56241
head 8.07465 -6.83737 3.23042
rclavicle -1.98785e-014 3.81667e-014
rhumerus -27.648 23.2838 -84.0581
rradius 107.51
rwrist -2.43656
rhand -9.12369 21.5284
rfingers 7.12502
rthumb 16.8274 -7.76246
lclavicle -1.98785e-014 3.81667e-014
lhumerus -60.2379 -1.36405 79.7337
lradius 95.2963
lwrist 15.7035
lhand -20.3848 5.3739
lfingers 7.12502
lthumb 5.96827 35.2698
rfemur -16.5321 2.84569 23.597
rtibia 52.8036
rfoot -14.1136 6.66871
rtoes 21.6108
lfemur -10.5873 -9.09512 -17.3237
ltibia 58.4198
lfoot 0.676925 0.33746
ltoes -17.142
123
root 4.85972 16.6788 5.67439 -12.8248 -47.4682 22.2259
lowerback 8.91313 0.783782 -0.240896
upperback -0.13515 1.09478 1.65227
thorax -5.18155 0.563744 1.71243
lowerneck -11.3735 -11.1394 -14.5179
upperneck 14.7029 -13.9972 7.72507
head 7.98792 -6.88198 3.25315
rclavicle 3.4191e-014 4.77083e-014
rhumerus -26.8408 23.015 -84.4198
rradius 107.998
rwrist -1.91358
rhand -9.30725 21.9014
rfingers 7.12502
rthumb 16.6507 -7.40441
lclavicle 3.4191e-014 4.77083e-014
lhumerus -62.0102 -1.90163 79.9446
lradius 95.6126
lwrist 15.8282
lhand -20.6621 5.43846
lfingers 7.12502
lthumb 5.70061 35.3418
rfemur -14.5124 3.49925 24.2776
rtibia 50.8597
rfoot -13.3933 6.98851
rtoes 21.8492
lfemur -12.4835 -8.50962 -17.1523
ltibia 58.8957
lfoot -1.67552 1.02377
ltoes -17.0612
124
root 4.60907 16.7183 5.80646 -12.0969 -47.9718 21.504
lowerback 9.16001 0.814934 0.245532
upperback -0.0306213 1.18982 1.72761
thorax -5.2059 0.597491 1.50207
lowerneck -11.5124 -11.7525 -14.8191
upperneck 14.1724 -14.8857 8.58887
head 8.03166 -7.23614 3.44451
rclavicle 1.09332e-013 -3.18055e-015
rhumerus -26.1867 22.7329 -84.8668
rradius 108.806
rwrist -2.38322
rhand -9.43462 21.7941
rfingers 7.12502
rthumb 16.528 -7.52193
lclavicle 1.09332e-013 -3.18055e-015
lhumerus -63.5796 -2.37378 80.1573
lradius 95.994
lwrist 15.9711
lhand -20.9417 5.22563
lfingers 7.12502
lthumb 5.43065 35.136
rfemur -12.7961 4.14274 25.1857
rtibia 49.0358
rfoot -12.5083 7.01428
rtoes 21.9632
lfemur -14.6955 -8.08661 -16.8014
ltibia 59.2368
lfoot -4.15117 1.36218
ltoes -16.595
125
root 4.34989 16.7641 5.92773 -11.4328 -48.3372 21.0281
lowerback 9.22326 0.859071 0.41184
upperback 0.110151 1.26587 1.79106
thorax -5.09392 0.630213 1.46416
lowerneck -11.8287 -12.7649 -15.9263
upperneck 13.8587 -16.3395 10.3427
head 8.4145 -7.81646 3.92802
rclavicle 2.42517e-014 -3.49861e-014
rhumerus -25.5704 22.342 -85.2241
rradius 109.793
rwrist -3.28639
rhand -9.44685 21.3873
rfingers 7.12502
rthumb 16.5163 -7.92973
lclavicle 2.42517e-014 -3.49861e-014
lhumerus -64.763 -2.79135 80.4981
lradius 96.2073
lwrist 16.0548
lhand -20.9234 5.40996
lfingers 7.12502
lthumb 5.44834 35.3199
rfemur -11.3169 4.69818 25.8713
rtibia 47.3259
rfoot -11.266 7.18082
rtoes 22.9829
lfemur -17.0699 -7.36441 -16.6613
ltibia 59.396
lfoot -6.39113 1.08625
ltoes -19.5651
126
root 4.08787 16.8122 6.04962 -10.8259 -48.4608 20.6418
lowerback 9.19848 0.886476 0.640438
upperback 0.260041 1.31946 1.74493
thorax -4.91806 0.649723 1.28112
lowerneck -11.8883 -12.759 -15.7768
upperneck 13.6624 -16.3367 10.3971
head 8.35075 -7.80119 3.92465
rclavicle 1.35174e-014 6.36111e-015
rhumerus -25.2029 21.6301 -85.7353
rradius 110.944
rwrist -4.16653
rhand -9.77843 21.4063
rfingers 7.12502
rthumb 16.197 -7.93707
lclavicle 1.35174e-014 6.36111e-015
lhumerus -65.6894 -3.26214 80.9267
lradius 96.4346
lwrist 16.2679
lhand -20.4167 5.49669
lfingers 7.12502
lthumb 5.9375 35.3935
rfemur -9.92964 4.91707 26.4047
rtibia 45.6696
rfoot -9.76338 7.47553
rtoes 23.815
lfemur -19.4768 -6.76789 -16.703
ltibia 59.283
lfoot -8.21577 0.575975
ltoes -21.3201
127
root 3.82064 16.8647 6.17445 -10.3715 -48.4611 20.3909
lowerback 9.30215 0.964657 0.808136
upperback 0.36328 1.43368 1.61283
thorax -4.86277 0.700411 1.03302
lowerneck -11.5849 -12.6617 -15.3017
upperneck 13.1901 -16.2488 10.1956
head 8.06922 -7.7666 3.82998
rclavicle 1.27222e-014 -6.36111e-015
rhumerus -25.1314 20.7466 -86.4
rradius 112.068
rwrist -5.4007
rhand -10.1644 21.6779
rfingers 7.12502
rthumb 15.8254 -7.6953
lclavicle 1.27222e-014 -6.36111e-015
lhumerus -66.4519 -3.91802 81.414
lradius 96.6665
lwrist 16.6853
lhand -19.9982 5.07213
lfingers 7.12502
lthumb 6.34152 34.9572
rfemur -8.46321 5.32228 26.8131
rtibia 44.0151
rfoot -7.8289 7.60899
rtoes 26.1385
lfemur -21.731 -6.62039 -16.9352
ltibia 58.7622
lfoot -9.41981 0.390666
ltoes -18.3766
